<?xml version="1.0" encoding="UTF-8"?>
<svg xmlns="http://www.w3.org/2000/svg" xmlns:xlink="http://www.w3.org/1999/xlink" width="64pt" height="64pt" viewBox="0 0 64 64" version="1.1">
<g id="surface1">
<path style=" stroke:none;fill-rule:nonzero;fill:rgb(40.392157%,38.431373%,65.098039%);fill-opacity:1;" d="M 17.648438 50.898438 C 15.648438 50.898438 14 51.148438 12.800781 51.601562 C 12.351562 53.199219 12.148438 54.898438 12.148438 56.800781 C 12.148438 60.300781 12.75 62.449219 16.75 62.449219 C 18.601562 62.449219 20.148438 61.898438 21.398438 61.300781 L 21 59.5 C 19.800781 59.949219 18.25 60.351562 16.898438 60.351562 C 15.148438 60.351562 14.601562 59.898438 14.5 56.898438 L 22 56.898438 L 22 55.800781 C 22 52.75 20.898438 50.898438 17.648438 50.898438 Z M 14.5 55.5 C 14.550781 54 14.648438 53.601562 14.75 53.148438 C 15.699219 52.949219 16.800781 52.949219 17.550781 52.949219 C 19.199219 52.949219 19.5 54 19.5 55.5 Z M 6.949219 50.898438 C 5.601562 50.898438 4.5 51.25 3 51.648438 L 3 46.5 L 1 46.5 L 1 62 L 3 62 L 3 53.699219 C 4.5 53.199219 5.5 52.949219 6.5 52.949219 C 7 52.949219 7.5 53.199219 7.5 53.800781 L 7.5 62.25 L 7.699219 62.050781 L 10 62.050781 L 10 54.148438 C 10 52.25 9.101562 50.898438 6.949219 50.898438 Z M 61 51 L 61 59.699219 C 59.5 60.199219 58.199219 60.449219 57.148438 60.449219 C 56.648438 60.449219 56 60.199219 56 59.601562 L 56 51 L 54 51 L 54 59.351562 C 54 61.199219 54.648438 62.5 56.800781 62.5 C 58.148438 62.5 60.5 62.300781 63 60.75 L 63 51 Z M 51.898438 51 L 49.199219 51 C 48.550781 52.5 47.601562 54.5 46.398438 55.5 L 45.5 55.5 L 45.5 46.5 L 43 46.5 L 43 62 L 45.5 62 L 45.5 57 L 46.550781 57 C 47.949219 58.5 48.851562 60.5 49.550781 62 L 52.351562 62 C 51.300781 60 50.101562 57.800781 48.5 55.800781 C 49.800781 54.449219 51 53 51.898438 51 Z M 24 62 L 26 62 L 26 53.699219 C 27 53.300781 28.5 53.148438 29.5 53.101562 L 29.5 51.101562 C 28 51.199219 26 51.550781 24 52.648438 Z M 35.699219 50.898438 C 32.648438 50.898438 30.550781 52.5 30.550781 56.75 C 30.550781 60.75 32.148438 62.5 35.699219 62.5 C 38.75 62.5 40.851562 60.898438 40.851562 56.648438 C 40.851562 52.648438 39.25 50.898438 35.699219 50.898438 Z M 35.699219 60.5 C 33.699219 60.5 32.851562 59.800781 32.851562 56.75 C 32.851562 53.949219 33.851562 52.898438 35.699219 52.898438 C 37.699219 52.898438 38.550781 53.601562 38.550781 56.648438 C 38.5 59.449219 37.5 60.5 35.699219 60.5 Z M 49.5 5.148438 C 49.5 2.851562 47.648438 1 45.351562 1 L 18.648438 1 C 16.351562 1 14.5 2.851562 14.5 5.148438 L 14.5 40.351562 C 14.5 42.648438 16.351562 44.5 18.648438 44.5 L 45.351562 44.5 C 47.648438 44.5 49.5 42.648438 49.5 40.351562 Z M 16 5.398438 C 16 3.75 17.25 2.5 18.851562 2.5 L 45.101562 2.5 C 46.75 2.5 48 3.800781 48 5.398438 L 48 40.101562 C 48 41.75 46.75 43.050781 45.148438 43.050781 L 18.851562 43.050781 C 17.199219 43.050781 16 41.75 16 40.101562 Z M 42.949219 7 L 37.601562 7 C 37.601562 7 35.898438 11 34.050781 13 L 39.25 13 C 42.050781 9.5 42.949219 7 42.949219 7 Z M 22.5 38.449219 L 27.398438 33.5 L 22.5 28.601562 Z M 36.5 21.199219 L 36.5 38.449219 L 36.449219 38.5 L 41 38.5 L 41 21.25 C 41 11.800781 27.5 17.148438 27.5 17.148438 L 27.5 6.898438 L 22.601562 6.949219 C 22.601562 6.949219 22.601562 22.949219 22.648438 22.898438 C 37.601562 17.101562 36.5 21.199219 36.5 21.199219 Z M 36.5 21.199219 "/>
</g>
</svg>
